<svg xmlns="http://www.w3.org/2000/svg" viewBox="0 0 69.4 69.4" style="enable-background:new 0 0 69.4 69.4" xml:space="preserve"><path d="M34.7 6.3c9.3 0 10.4 0 14 .2 3.4.2 5.2.7 6.4 1.2 1.6.6 2.8 1.4 4 2.6 1.2 1.2 2 2.4 2.6 4 .5 1.2 1 3.1 1.2 6.4.2 3.7.2 4.8.2 14s0 10.4-.2 14c-.2 3.4-.7 5.2-1.2 6.4-.6 1.6-1.4 2.8-2.6 4-1.2 1.2-2.4 2-4 2.6-1.2.5-3.1 1-6.4 1.2-3.7.2-4.8.2-14 .2s-10.4 0-14-.2c-3.4-.2-5.2-.7-6.4-1.2-1.6-.6-2.8-1.4-4-2.6-1.2-1.2-2-2.4-2.6-4-.5-1.2-1-3.1-1.2-6.4-.2-3.7-.2-4.8-.2-14s0-10.4.2-14c.2-3.4.7-5.2 1.2-6.4.6-1.6 1.4-2.8 2.6-4 1.2-1.2 2.4-2 4-2.6 1.2-.5 3.1-1 6.4-1.2 3.6-.2 4.7-.2 14-.2m0-6.3c-9.4 0-10.6 0-14.3.2-3.7.2-6.2.8-8.4 1.6-2.3.9-4.2 2.1-6.1 4-1.9 1.9-3.1 3.9-4 6.1C1 14.1.5 16.6.3 20.3c-.3 3.8-.3 5-.3 14.4S0 45.3.2 49c.2 3.7.8 6.2 1.6 8.4.9 2.3 2.1 4.2 4 6.1 1.9 1.9 3.9 3.1 6.1 4 2.2.9 4.7 1.4 8.4 1.6 3.7.2 4.9.2 14.3.2s10.6 0 14.3-.2c3.7-.2 6.2-.8 8.4-1.6 2.3-.9 4.2-2.1 6.1-4 1.9-1.9 3.1-3.9 4-6.1.9-2.2 1.4-4.7 1.6-8.4.2-3.7.2-4.9.2-14.3s0-10.6-.2-14.3c-.2-3.7-.8-6.2-1.6-8.4-.9-2.3-2.1-4.2-4-6.1-1.9-1.9-3.9-3.1-6.1-4C55.2 1 52.7.4 49 .2 45.3 0 44.1 0 34.7 0z"/><path d="M34.7 16.9c-9.8 0-17.8 8-17.8 17.8s8 17.8 17.8 17.8 17.8-8 17.8-17.8-8-17.8-17.8-17.8zm0 29.4c-6.4 0-11.6-5.2-11.6-11.6s5.2-11.6 11.6-11.6 11.6 5.2 11.6 11.6-5.2 11.6-11.6 11.6z"/><circle cx="53.2" cy="16.2" r="4.2"/></svg>