<svg xmlns="http://www.w3.org/2000/svg" version="1.1" id="Layer_1" x="0" y="0" viewBox="0 0 69.4 69.4" style="enable-background:new 0 0 69.4 69.4" xml:space="preserve"><style>.colored_white{fill:#fff}</style><path d="M64.3 0H5.1C2.3 0 0 2.2 0 5v59.4c0 2.8 2.3 5 5.1 5h59.2c2.8 0 5.1-2.2 5.1-5V5c0-2.7-2.3-5-5.1-5z" style="fill:#0077b5"/><path class="colored_white" d="M10.3 26.1h10.3v33.2H10.3zm16.8 0H37v4.5h.1c1.4-2.6 4.7-5.4 9.8-5.4 10.5 0 12.4 6.9 12.4 15.8v18.2H49V43c0-3.9-.1-8.8-5.4-8.8-5.4 0-6.2 4.2-6.2 8.5v16.4H27.1v-33z"/><circle class="colored_white" cx="15.5" cy="15.6" r="6"/></svg>