<svg xmlns="http://www.w3.org/2000/svg" version="1.1" id="Layer_1" x="0" y="0" viewBox="-443.7 246.5 69.5 69.5" style="enable-background:new -443.7 246.5 69.5 69.5" xml:space="preserve"><style>.colored_white{fill:#fff}</style><g class="svgicon"><path d="M-374.2 312.5c0 1.9-1.6 3.5-3.5 3.5h-62.5c-1.9 0-3.5-1.6-3.5-3.5V250c0-1.9 1.6-3.5 3.5-3.5h62.5c1.9 0 3.5 1.6 3.5 3.5v62.5z" style="fill:#633c8c"/><path class="colored_white" d="M-398.5 298.3h-9.1l-6 6h-6v-6h-11.1v-32.1l3-8h41.2v28.2l-12 11.9zm8.1-14v-22.2h-33.2v29.2h9.1v6l6-6h11.1l7-7z"/><path class="colored_white" d="M-401.5 270.2v12.1h4v-12.1h-4zm-11.1 12.1h4v-12.1h-4v12.1z" id="Solo_Glitch_136_"/></g></svg>