<svg xmlns="http://www.w3.org/2000/svg" viewBox="-444 246.5 69.4 69.4" style="enable-background:new -444 246.5 69.4 69.4" xml:space="preserve"><g class="svgicon"><path style="fill:#55acee" d="M-444 246.5h69.4v69.4H-444z"/><path d="M-385.6 266.3c-1.7.8-3.6 1.3-5.5 1.5 2-1.2 3.5-3.1 4.2-5.3-1.9 1.1-3.9 1.9-6.1 2.3-1.8-1.9-4.3-3-7-3-5.3 0-9.6 4.3-9.6 9.6 0 .8.1 1.5.2 2.2-8-.4-15.1-4.2-19.8-10-.8 1.4-1.3 3.1-1.3 4.8 0 3.3 1.7 6.3 4.3 8-1.6 0-3.1-.5-4.4-1.2v.1c0 4.7 3.3 8.5 7.7 9.4-.8.2-1.7.3-2.5.3-.6 0-1.2-.1-1.8-.2 1.2 3.8 4.8 6.6 9 6.7-3.3 2.6-7.4 4.1-11.9 4.1-.8 0-1.5 0-2.3-.1 4.3 2.7 9.3 4.3 14.7 4.3 17.7 0 27.4-14.7 27.4-27.4v-1.2c1.8-1.3 3.4-3 4.7-4.9z" style="fill:#fff"/></g></svg>