<svg xmlns="http://www.w3.org/2000/svg" data-name="Layer 1" viewBox="0 0 329.4 329.4"><path d="M-68.64-108.38a18 18 0 0 0 18-18v-293.37a18 18 0 0 0-18-18H-362a18 18 0 0 0-18 18v293.33a18 18 0 0 0 18 18h293.36Z" transform="translate(380 437.78)" style="fill:#c3c3c3"/><path data-name="whatsapp-background" d="M-68.64-108.38a18 18 0 0 0 18-18v-293.37a18 18 0 0 0-18-18H-362a18 18 0 0 0-18 18v293.33a18 18 0 0 0 18 18h293.36Z" transform="translate(380 437.78)" style="fill:#25d366"/><path d="M-128.79-358.18a117.49 117.49 0 0 0-83.65-34.68 118.42 118.42 0 0 0-118.27 118.24 118 118 0 0 0 15.79 59.12l-16.78 61.28 62.7-16.44a118.15 118.15 0 0 0 56.51 14.39c65.17 0 118.23-53.05 118.26-118.25a117.54 117.54 0 0 0-34.56-83.66Zm-83.65 181.94a98.14 98.14 0 0 1-50-13.7l-3.59-2.13-37.2 9.76 9.93-36.27-2.34-3.72a98.05 98.05 0 0 1-15-52.31 98.43 98.43 0 0 1 98.33-98.28 97.62 97.62 0 0 1 69.49 28.83 97.7 97.7 0 0 1 28.76 69.54 98.43 98.43 0 0 1-98.39 98.28Zm53.91-73.61c-3-1.48-17.48-8.63-20.19-9.61s-4.68-1.48-6.65 1.48-7.63 9.61-9.36 11.59-3.45 2.22-6.4.74-12.48-4.6-23.76-14.67a89 89 0 0 1-16.44-20.47c-1.72-3-.18-4.56 1.3-6s3-3.45 4.43-5.18a20.17 20.17 0 0 0 3-4.93 5.44 5.44 0 0 0-.25-5.18c-.74-1.48-6.65-16-9.11-21.94-2.4-5.76-4.83-5-6.65-5.07s-3.69-.1-5.66-.1a10.86 10.86 0 0 0-7.88 3.7c-2.71 3-10.34 10.11-10.34 24.65s10.59 28.59 12.07 30.57 20.78 31.77 50.42 44.57a169.72 169.72 0 0 0 16.84 6.22 40.49 40.49 0 0 0 18.61 1.17c5.68-.85 17.48-7.15 19.94-14s2.46-12.82 1.72-14.05-2.69-2.01-5.64-3.49Z" transform="translate(380 437.78)" style="fill:#fff;fill-rule:evenodd"/></svg>