<svg xmlns="http://www.w3.org/2000/svg" viewBox="-444.2 246.5 69.4 69.4" style="enable-background:new -444.2 246.5 69.4 69.4" xml:space="preserve"><g class="svgicon"><linearGradient id="a" gradientUnits="userSpaceOnUse" x1="-409.5" y1="249.3" x2="-409.5" y2="318.7" gradientTransform="matrix(1 0 0 -1 0 565.2)"><stop offset="0" style="stop-color:#b31217"/><stop offset="1" style="stop-color:#e52d27"/></linearGradient><path style="fill:url(#a)" d="M-444.2 246.5h69.4v69.4h-69.4z"/><linearGradient id="b" gradientUnits="userSpaceOnUse" x1="-432.544" y1="284.75" x2="-386.444" y2="284.75" gradientTransform="matrix(1 0 0 -1 0 565.2)"><stop offset="0" style="stop-color:#f5f5f5"/><stop offset="1" style="stop-color:#ededed"/></linearGradient><path d="M-386.9 271.2s-.5-3.2-1.8-4.6c-1.8-1.9-3.7-1.9-4.6-2-6.5-.5-16.1-.5-16.1-.5s-9.7 0-16.1.5c-.9.1-2.9.1-4.6 2-1.4 1.4-1.8 4.6-1.8 4.6s-.5 3.8-.5 7.5v3.5c0 3.8.5 7.5.5 7.5s.4 3.2 1.8 4.6c1.8 1.9 4.1 1.8 5.1 2 3.7.4 15.7.5 15.7.5s9.7 0 16.1-.5c.9-.1 2.9-.1 4.6-2 1.4-1.4 1.8-4.6 1.8-4.6s.5-3.8.5-7.5v-3.5c-.1-3.7-.6-7.5-.6-7.5zm-27.4 15.8v-13.1l12.2 6.4-12.2 6.7z" style="fill:url(#b)"/><path style="fill:#981818" d="m-414.3 273.9 10.8 7.2 1.5-.8z"/></g></svg>